<?xml version="1.0" standalone="no"?>
<!DOCTYPE svg PUBLIC "-//W3C//DTD SVG 20010904//EN"
 "http://www.w3.org/TR/2001/REC-SVG-20010904/DTD/svg10.dtd">
<svg version="1.0" xmlns="http://www.w3.org/2000/svg"
 width="327.000000pt" height="327.000000pt" viewBox="0 0 327.000000 327.000000"
 preserveAspectRatio="xMidYMid meet">
<metadata>
Created by potrace 1.11, written by Peter Selinger 2001-2013
</metadata>
<g transform="translate(0.000000,327.000000) scale(0.100000,-0.100000)"
fill="#000000" stroke="none">
<path d="M1525 3171 c-126 -36 -249 -120 -353 -240 -122 -142 -178 -250 -227
-433 -24 -93 -27 -105 -44 -228 -10 -67 -7 -364 4 -435 44 -287 115 -515 238
-763 73 -145 180 -309 211 -324 46 -20 110 25 102 74 -1 8 -30 58 -64 111 -74
114 -154 271 -211 415 -40 101 -103 321 -116 412 -4 25 -9 52 -10 60 -17 95
-22 298 -11 415 20 201 89 408 173 522 174 232 358 325 528 267 148 -50 309
-217 440 -457 l37 -67 -21 -45 c-45 -96 -19 -199 65 -258 138 -97 320 11 309
181 -6 98 -90 180 -187 184 -33 1 -38 6 -69 66 -111 210 -276 402 -417 485
-122 71 -257 91 -377 58z m884 -732 c29 -10 59 -49 56 -74 -3 -37 -18 -62 -43
-77 -79 -47 -168 46 -116 120 14 20 44 39 65 41 3 1 20 -4 38 -10z"/>
<path d="M1487 2054 c-1 -1 -44 -5 -96 -8 -91 -7 -140 -24 -142 -50 0 -6 -2
-20 -4 -31 -9 -49 43 -75 130 -65 100 11 449 0 475 -15 3 -2 26 -6 50 -10 79
-12 267 -63 357 -98 216 -84 395 -196 534 -336 129 -130 214 -266 278 -446 98
-274 33 -497 -175 -603 -45 -23 -171 -57 -243 -66 -47 -6 -312 -10 -314 -4
-57 116 -96 149 -181 156 -67 5 -114 -10 -155 -50 -61 -59 -79 -128 -55 -207
24 -82 103 -140 192 -141 54 0 98 18 142 60 l35 33 185 2 c194 2 288 17 409
65 161 63 292 201 331 350 20 74 21 82 21 150 1 152 -36 290 -126 472 -207
418 -668 718 -1250 813 -94 16 -389 37 -398 29z m687 -1694 c70 -26 63 -136
-10 -160 -42 -14 -67 -6 -94 27 -31 39 -26 86 11 117 33 28 53 32 93 16z"/>
<path d="M415 1748 c-120 -32 -186 -149 -148 -261 l13 -39 -75 -112 c-139
-209 -203 -388 -203 -566 0 -52 6 -119 14 -147 40 -153 154 -287 309 -365 50
-25 116 -49 125 -46 3 1 14 -4 25 -10 12 -5 39 -13 61 -16 22 -4 51 -9 64 -11
48 -10 196 -7 260 5 271 49 686 252 980 478 261 201 487 471 575 688 21 50 22
62 11 88 -7 18 -24 35 -39 40 -46 17 -71 -5 -122 -105 -81 -160 -189 -303
-333 -440 -96 -91 -96 -91 -198 -169 -197 -154 -511 -320 -755 -399 -66 -22
-77 -24 -157 -40 -70 -14 -213 -5 -298 19 -391 106 -486 418 -253 825 28 49
68 111 88 138 l38 49 65 1 c56 2 73 7 109 32 117 82 113 267 -7 337 -41 24
-112 36 -149 26z m100 -131 c75 -64 -9 -186 -97 -141 -56 29 -64 89 -19 135
36 36 79 38 116 6z"/>
</g>
</svg>
